<?xml version="1.0" encoding="utf-8"?>
<!-- Generator: Adobe Illustrator 21.0.0, SVG Export Plug-In . SVG Version: 6.00 Build 0)  -->
<svg version="1.1" id="Vrstva_1" xmlns="http://www.w3.org/2000/svg" xmlns:xlink="http://www.w3.org/1999/xlink" x="0px" y="0px"
	 viewBox="0 0 24 24" style="enable-background:new 0 0 24 24;" xml:space="preserve">
<style type="text/css">
	.st0{fill:#FFFFFF;}
	.st1{fill:#E41D13;}
</style>
<path class="st0" d="M11.1,4.4v15.2c0,0.2-0.1,0.5-0.3,0.6s-0.4,0.3-0.6,0.3s-0.5-0.1-0.6-0.3L5,15.6H1.3c-0.2,0-0.5-0.1-0.6-0.3
	c-0.2-0.2-0.3-0.4-0.3-0.6V9.3c0-0.2,0.1-0.5,0.3-0.6C0.8,8.5,1,8.4,1.3,8.4H5l4.6-4.6c0.2-0.2,0.4-0.3,0.6-0.3s0.5,0.1,0.6,0.3
	S11.1,4.2,11.1,4.4z"/>
<path class="st1" d="M20.4,12l2.8-2.8c0.4-0.3,0.6-0.7,0.6-1.2c0-0.5-0.2-0.9-0.6-1.2L23,6.7c-0.6-0.6-1.7-0.6-2.3,0l-2.9,2.9
	L15,6.7c-0.6-0.6-1.7-0.6-2.3,0l-0.2,0.2c-0.6,0.6-0.6,1.7,0,2.3l2.9,2.9l-2.9,2.9c-0.6,0.6-0.6,1.7,0,2.3l0.2,0.2
	c0.3,0.3,0.7,0.4,1.1,0.4c0.4,0,0.8-0.2,1.1-0.4l2.9-2.9l2.9,2.9l0.1,0.1c0.3,0.3,0.7,0.4,1.1,0.4c0.4,0,0.8-0.1,1.1-0.4l0.2-0.2
	c0.6-0.6,0.6-1.7,0-2.3L20.4,12z"/>
</svg>
