<?xml version="1.0" encoding="utf-8"?>
<!-- Generator: Adobe Illustrator 19.2.1, SVG Export Plug-In . SVG Version: 6.00 Build 0)  -->
<svg version="1.1" id="Vrstva_1" xmlns="http://www.w3.org/2000/svg" xmlns:xlink="http://www.w3.org/1999/xlink" x="0px" y="0px"
	 viewBox="0 0 24 24" style="enable-background:new 0 0 24 24;" xml:space="preserve">
<style type="text/css">
	.st0{fill:#FFFFFF;}
</style>
<g>
	<path class="st0" d="M23,3c-0.5-0.5-1-0.7-1.7-0.7H2.7C2,2.3,1.5,2.5,1,3S0.3,4,0.3,4.7v14.6C0.3,20,0.5,20.5,1,21s1,0.7,1.7,0.7
		h18.6c0.6,0,1.2-0.2,1.7-0.7s0.7-1,0.7-1.7V4.7C23.7,4,23.5,3.5,23,3z M21.7,19.7H2.3V4.3h19.4C21.7,4.3,21.7,19.7,21.7,19.7z
		 M8.4,14.6c0,0.1,0,0.1-0.1,0.2L6.1,17l1,1c0.1,0.1,0.1,0.2,0.1,0.3c0,0.1,0,0.2-0.1,0.3c-0.1,0.1-0.2,0.1-0.3,0.1h-3
		c-0.1,0-0.2,0-0.3-0.1s-0.1-0.2-0.1-0.3v-3c0-0.1,0-0.2,0.1-0.3s0.2-0.1,0.3-0.1s0.2,0,0.3,0.1l1,1l2.2-2.2c0,0,0.1-0.1,0.2-0.1
		s0.1,0,0.2,0.1l0.8,0.8C8.3,14.5,8.4,14.6,8.4,14.6z M20.7,5.7v3c0,0.1,0,0.2-0.1,0.3s-0.2,0.1-0.3,0.1c-0.1,0-0.2,0-0.3-0.1l-1-1
		l-2.2,2.2c0,0-0.1,0.1-0.2,0.1s-0.1,0-0.2-0.1l-0.8-0.8c0,0-0.1-0.1-0.1-0.2c0-0.1,0-0.1,0.1-0.2l2.3-2l-1-1
		c-0.1-0.1-0.1-0.2-0.1-0.3c0-0.1,0-0.2,0.1-0.3c0.1-0.1,0.2-0.1,0.3-0.1h3c0.1,0,0.2,0,0.3,0.1C20.7,5.5,20.7,5.6,20.7,5.7z
		 M16.6,13.6c0.1,0,0.1,0,0.2,0.1l2.2,2.2l1-1c0.1-0.1,0.2-0.1,0.3-0.1c0.1,0,0.2,0,0.3,0.1c0.1,0.1,0.1,0.2,0.1,0.3v3
		c0,0.1,0,0.2-0.1,0.3c-0.1,0.1-0.2,0.1-0.3,0.1h-3c-0.1,0-0.2,0-0.3-0.1c-0.1-0.1-0.1-0.2-0.1-0.3c0-0.1,0-0.2,0.1-0.3l1-1
		l-2.2-2.2c0,0-0.1-0.1-0.1-0.2c0-0.1,0-0.1,0.1-0.2L16.6,13.6C16.5,13.7,16.6,13.6,16.6,13.6z M3.7,5.3h3c0.1,0,0.2,0,0.3,0.1
		c0.1,0.1,0.1,0.2,0.1,0.3c0,0.1,0,0.2-0.1,0.3L6,7l2.2,2.2c0,0,0.1,0.1,0.1,0.2c0,0.1,0,0.1-0.1,0.2l-0.8,0.8c0,0-0.1,0.1-0.2,0.1
		s-0.1,0-0.2-0.1L5,8.1L4,9C3.9,9.1,3.8,9.2,3.7,9.2s-0.2,0-0.3-0.1C3.3,8.9,3.3,8.8,3.3,8.7v-3c0-0.1,0-0.2,0.1-0.3
		C3.5,5.3,3.6,5.3,3.7,5.3z"/>
</g>
</svg>
