<?xml version="1.0" encoding="utf-8"?>
<!-- Generator: Adobe Illustrator 19.2.1, SVG Export Plug-In . SVG Version: 6.00 Build 0)  -->
<svg version="1.1" id="Vrstva_1" xmlns="http://www.w3.org/2000/svg" xmlns:xlink="http://www.w3.org/1999/xlink" x="0px" y="0px"
	 viewBox="0 0 24 24" style="enable-background:new 0 0 24 24;" xml:space="preserve">
<style type="text/css">
	.st0{fill:#FFFFFF;}
</style>
<g>
	<path class="st0" d="M23.6,16.9v4.5c0,0.4-0.1,0.7-0.4,0.9c-0.3,0.3-0.6,0.4-0.9,0.4H1.7c-0.4,0-0.7-0.1-0.9-0.4s-0.4-0.6-0.4-0.9
		v-4.5c0-0.4,0.1-0.7,0.4-0.9c0.3-0.3,0.6-0.4,0.9-0.4h6.5l1.9,1.9c0.5,0.5,1.2,0.8,1.9,0.8s1.4-0.3,1.9-0.8l1.9-1.9h6.5
		c0.4,0,0.7,0.1,0.9,0.4C23.5,16.2,23.6,16.5,23.6,16.9z M19.1,9c0.2,0.4,0.1,0.7-0.2,1l-6.3,6.3c-0.2,0.2-0.4,0.3-0.6,0.3
		c-0.3,0-0.5-0.1-0.6-0.3L5.1,9.9C4.8,9.7,4.8,9.4,4.9,9c0.2-0.4,0.4-0.5,0.8-0.5h3.6V2.2c0-0.2,0.1-0.5,0.3-0.6
		c0.2-0.2,0.4-0.3,0.6-0.3h3.6c0.2,0,0.5,0.1,0.6,0.3c0.2,0.2,0.3,0.4,0.3,0.6v6.3h3.6C18.6,8.4,18.9,8.6,19.1,9z M18,20.7
		c0.2-0.2,0.3-0.4,0.3-0.6s-0.1-0.5-0.3-0.6c-0.2-0.2-0.4-0.3-0.6-0.3s-0.5,0.1-0.6,0.3s-0.3,0.4-0.3,0.6s0.1,0.5,0.3,0.6
		s0.4,0.3,0.6,0.3C17.6,20.9,17.8,20.8,18,20.7z M21.6,20.7c0.2-0.2,0.3-0.4,0.3-0.6s-0.1-0.5-0.3-0.6c-0.2-0.2-0.4-0.3-0.6-0.3
		s-0.5,0.1-0.6,0.3S20,19.8,20,20s0.1,0.5,0.3,0.6s0.4,0.3,0.6,0.3S21.4,20.8,21.6,20.7z"/>
</g>
</svg>
