<?xml version="1.0" encoding="utf-8"?>
<!-- Generator: Adobe Illustrator 19.2.1, SVG Export Plug-In . SVG Version: 6.00 Build 0)  -->
<svg version="1.1" id="Vrstva_1" xmlns="http://www.w3.org/2000/svg" xmlns:xlink="http://www.w3.org/1999/xlink" x="0px" y="0px"
	 viewBox="0 0 24 24" style="enable-background:new 0 0 24 24;" xml:space="preserve">
<style type="text/css">
	.st0{fill:#FFFFFF;}
</style>
<g>
	<path class="st0" d="M12,2.1c0.4,0,0.8,0.1,1.2,0.1c0.4,0,0.7,0.3,0.7,0.7c0,0.2,0,0.4,0,0.5c0,0.4,0.2,0.7,0.6,0.8
		c0.4,0.2,0.9,0.4,1.3,0.5c0.4,0.1,0.7,0.1,1-0.2c0.1-0.1,0.3-0.3,0.4-0.4c0.3-0.3,0.7-0.3,1,0c0.5,0.5,1.1,1.1,1.6,1.6
		c0.3,0.3,0.3,0.7,0,1c-0.1,0.1-0.2,0.2-0.4,0.4C19.1,7.6,19,8,19.1,8.3c0.2,0.4,0.3,0.8,0.5,1.2c0.2,0.4,0.5,0.6,0.9,0.6
		c0.2,0,0.4,0,0.5,0c0.4,0,0.6,0.3,0.7,0.6c0.1,0.8,0.1,1.7,0,2.5c0,0.3-0.3,0.6-0.7,0.6c-0.2,0-0.4,0-0.6,0c-0.4,0-0.7,0.2-0.9,0.6
		c-0.2,0.4-0.3,0.8-0.5,1.2c-0.2,0.4-0.1,0.7,0.2,1c0.1,0.1,0.2,0.2,0.4,0.4c0.3,0.3,0.3,0.7,0,1c-0.5,0.5-1.1,1.1-1.6,1.6
		c-0.3,0.3-0.7,0.3-1,0c-0.1-0.1-0.3-0.3-0.4-0.4c-0.3-0.3-0.6-0.3-1-0.2c-0.4,0.2-0.8,0.3-1.2,0.5c-0.4,0.2-0.5,0.4-0.6,0.8
		c0,0.2,0,0.4,0,0.5c0,0.4-0.2,0.7-0.6,0.8c-0.8,0.1-1.6,0.1-2.5,0c-0.4-0.1-0.6-0.3-0.6-0.7c0-0.2,0-0.4,0-0.6
		c0-0.4-0.2-0.7-0.6-0.8c-0.4-0.2-0.9-0.4-1.3-0.5C8,19,7.7,19.1,7.4,19.4c-0.1,0.1-0.3,0.3-0.4,0.4c-0.3,0.3-0.7,0.3-1,0
		c-0.5-0.5-1.1-1.1-1.6-1.6c-0.3-0.3-0.3-0.7,0-1c0.1-0.1,0.3-0.3,0.4-0.4c0.3-0.3,0.3-0.6,0.2-1c-0.2-0.4-0.4-0.9-0.5-1.3
		C4.2,14.2,3.9,14,3.5,14c-0.2,0-0.4,0-0.6,0c-0.4,0-0.7-0.3-0.7-0.6c-0.1-0.8-0.1-1.6,0-2.4c0.1-0.5,0.3-0.7,0.8-0.7
		c0.2,0,0.3,0,0.5,0c0.4,0,0.7-0.2,0.9-0.6c0.2-0.4,0.4-0.8,0.5-1.3C5,8,4.9,7.7,4.6,7.4C4.5,7.3,4.4,7.1,4.3,7C4,6.7,4,6.3,4.3,6
		c0.5-0.5,1.1-1.1,1.6-1.6c0.3-0.3,0.7-0.3,1,0C7,4.5,7.1,4.6,7.2,4.7c0.3,0.3,0.6,0.4,1,0.2c0.4-0.2,0.8-0.3,1.3-0.5
		c0.4-0.2,0.6-0.4,0.6-0.9c0-0.2,0-0.4,0-0.5c0-0.4,0.2-0.7,0.6-0.7C11.1,2.2,11.6,2.2,12,2.1z M12,6.8c-2.8,0-5.2,2.3-5.2,5.1
		c0,2.9,2.3,5.2,5.2,5.3c2.9,0,5.2-2.3,5.2-5.2C17.2,9.2,14.9,6.8,12,6.8z"/>
</g>
</svg>
