<?xml version="1.0" encoding="utf-8"?>
<!-- Generator: Adobe Illustrator 19.2.1, SVG Export Plug-In . SVG Version: 6.00 Build 0)  -->
<svg version="1.1" id="Vrstva_1" xmlns="http://www.w3.org/2000/svg" xmlns:xlink="http://www.w3.org/1999/xlink" x="0px" y="0px"
	 viewBox="0 0 24 24" style="enable-background:new 0 0 24 24;" xml:space="preserve">
<style type="text/css">
	.st0{fill:#FFFFFF;}
</style>
<g>
	<path class="st0" d="M22.3,18.4c0,2.1-1.7,3.9-3.9,3.9H5.6c-2.1,0-3.9-1.7-3.9-3.9V5.6c0-2.1,1.7-3.9,3.9-3.9h12.8
		c2.1,0,3.9,1.7,3.9,3.9V18.4z M19.1,9.2c0.3-0.3,0.3-0.9,0-1.2l-1.4-1.4c-0.3-0.3-0.9-0.3-1.2,0l-6.2,6.2L7.5,10
		c-0.3-0.3-0.9-0.3-1.2,0l-1.4,1.4c-0.3,0.3-0.3,0.9,0,1.2l4.8,4.8c0.3,0.3,0.9,0.3,1.2,0L19.1,9.2z"/>
</g>
</svg>
