<?xml version="1.0" encoding="utf-8"?>
<!-- Generator: Adobe Illustrator 19.2.1, SVG Export Plug-In . SVG Version: 6.00 Build 0)  -->
<svg version="1.1" id="Vrstva_1" xmlns="http://www.w3.org/2000/svg" xmlns:xlink="http://www.w3.org/1999/xlink" x="0px" y="0px"
	 viewBox="0 0 24 24" style="enable-background:new 0 0 24 24;" xml:space="preserve">
<style type="text/css">
	.st0{fill:#FFFFFF;}
</style>
<g>
	<path class="st0" d="M23,3c-0.5-0.5-1-0.7-1.7-0.7H2.7C2,2.3,1.5,2.5,1,3S0.3,4,0.3,4.7v14.6C0.3,20,0.5,20.5,1,21s1,0.7,1.7,0.7
		h18.6c0.6,0,1.2-0.2,1.7-0.7s0.7-1,0.7-1.7V4.7C23.7,4,23.5,3.5,23,3z M15.4,19.7H2.3V9.5h13.1C15.4,9.5,15.4,19.7,15.4,19.7z
		 M21.7,19.7h-4.4V9.1c0-0.4-0.2-0.8-0.5-1.2c-0.3-0.3-0.7-0.5-1.2-0.5H2.3V4.3h19.4C21.7,4.3,21.7,19.7,21.7,19.7z"/>
</g>
</svg>
