<?xml version="1.0" encoding="utf-8"?>
<!-- Generator: Adobe Illustrator 19.2.1, SVG Export Plug-In . SVG Version: 6.00 Build 0)  -->
<svg version="1.1" id="Vrstva_1" xmlns="http://www.w3.org/2000/svg" xmlns:xlink="http://www.w3.org/1999/xlink" x="0px" y="0px"
	 viewBox="0 0 24 24" style="enable-background:new 0 0 24 24;" xml:space="preserve">
<style type="text/css">
	.st0{fill:#FFFFFF;}
</style>
<g>
	<path class="st0" d="M11.1,4.4v15.2c0,0.2-0.1,0.5-0.3,0.6s-0.4,0.3-0.6,0.3s-0.5-0.1-0.6-0.3L5,15.6H1.3c-0.2,0-0.5-0.1-0.6-0.3
		c-0.2-0.2-0.3-0.4-0.3-0.6V9.3c0-0.2,0.1-0.5,0.3-0.6C0.8,8.5,1,8.4,1.3,8.4H5l4.6-4.6c0.2-0.2,0.4-0.3,0.6-0.3s0.5,0.1,0.6,0.3
		S11.1,4.2,11.1,4.4z M15.9,10c0.4,0.6,0.6,1.3,0.6,2s-0.2,1.4-0.6,2s-0.9,1-1.6,1.3c-0.1,0-0.2,0.1-0.3,0.1c-0.2,0-0.5-0.1-0.6-0.3
		c-0.2-0.2-0.3-0.4-0.3-0.6c0-0.2,0.1-0.4,0.2-0.5c0.1-0.1,0.2-0.3,0.4-0.3s0.3-0.2,0.5-0.3s0.3-0.3,0.4-0.5
		c0.1-0.2,0.2-0.5,0.2-0.8s-0.1-0.6-0.2-0.8c-0.1-0.2-0.2-0.4-0.4-0.5s-0.3-0.2-0.5-0.3s-0.3-0.2-0.4-0.3c-0.1-0.1-0.2-0.3-0.2-0.5
		c0-0.3,0.1-0.5,0.3-0.6c0.2-0.2,0.4-0.3,0.6-0.3c0.1,0,0.3,0,0.3,0.1C15,9,15.5,9.4,15.9,10z M18.8,8.1C19.6,9.3,20,10.6,20,12
		s-0.4,2.7-1.2,3.9S17,18,15.7,18.6c-0.1,0-0.2,0.1-0.3,0.1c-0.3,0-0.5-0.1-0.6-0.3c-0.2-0.2-0.3-0.4-0.3-0.6c0-0.4,0.2-0.6,0.5-0.8
		c0.5-0.3,0.9-0.5,1.1-0.6c0.7-0.5,1.2-1.1,1.6-1.9c0.4-0.8,0.6-1.6,0.6-2.4c0-0.9-0.2-1.7-0.6-2.4c-0.4-0.8-0.9-1.4-1.6-1.9
		c-0.2-0.1-0.5-0.3-1.1-0.6c-0.4-0.2-0.5-0.5-0.5-0.8c0-0.2,0.1-0.5,0.3-0.6c0.2-0.2,0.4-0.3,0.6-0.3c0.1,0,0.2,0,0.4,0.1
		C17,6,18.1,6.9,18.8,8.1z M21.8,6.1c1.2,1.8,1.8,3.8,1.8,5.9s-0.6,4.1-1.8,5.9s-2.8,3.1-4.7,4c-0.1,0-0.2,0.1-0.4,0.1
		c-0.2,0-0.5-0.1-0.6-0.3c-0.2-0.2-0.3-0.4-0.3-0.6c0-0.3,0.2-0.6,0.5-0.8c0.1,0,0.2-0.1,0.3-0.1c0.1-0.1,0.2-0.1,0.3-0.1
		c0.4-0.2,0.8-0.5,1.1-0.7c1.1-0.8,2-1.9,2.7-3.2c0.6-1.3,1-2.6,1-4s-0.3-2.8-1-4C20.1,6.9,19.2,5.9,18,5c-0.3-0.2-0.7-0.5-1.1-0.7
		c-0.1,0-0.2-0.1-0.3-0.1c-0.1-0.1-0.2-0.1-0.3-0.1C16,3.6,15.9,3.3,15.9,3c0-0.2,0.1-0.5,0.3-0.6c0.2-0.2,0.4-0.3,0.6-0.3
		c0.1,0,0.2,0,0.4,0.1C19.1,3,20.7,4.3,21.8,6.1z"/>
</g>
</svg>
