<?xml version="1.0" encoding="utf-8"?>
<!-- Generator: Adobe Illustrator 19.2.1, SVG Export Plug-In . SVG Version: 6.00 Build 0)  -->
<svg version="1.1" id="Vrstva_1" xmlns="http://www.w3.org/2000/svg" xmlns:xlink="http://www.w3.org/1999/xlink" x="0px" y="0px"
	 viewBox="0 0 24 24" style="enable-background:new 0 0 24 24;" xml:space="preserve">
<style type="text/css">
	.st0{fill:#FFFFFF;}
</style>
<g>
	<path class="st0" d="M22.7,3.1v6.2c0,0.2-0.1,0.5-0.3,0.6c-0.2,0.2-0.4,0.3-0.6,0.3h-6.3c-0.4,0-0.7-0.2-0.8-0.6
		c-0.2-0.4-0.1-0.7,0.2-1l1.9-1.9c-1.4-1.3-3-1.9-4.9-1.9c-1,0-1.9,0.2-2.8,0.6C8.4,5.8,7.6,6.3,7,6.9C6.3,7.6,5.8,8.4,5.4,9.2
		C5.1,10.1,4.9,11,4.9,12c0,1,0.2,1.9,0.6,2.8c0.4,0.9,0.9,1.6,1.5,2.3s1.4,1.2,2.3,1.5c0.9,0.4,1.8,0.6,2.8,0.6
		c1.1,0,2.2-0.2,3.1-0.7c1-0.5,1.8-1.2,2.5-2.1c0.1-0.1,0.2-0.1,0.3-0.2c0.1,0,0.2,0,0.3,0.1l1.9,1.9c0.1,0.1,0.1,0.2,0.1,0.3
		c0,0.1,0,0.2-0.1,0.3c-1,1.2-2.2,2.2-3.7,2.9c-1.4,0.7-3,1-4.6,1c-1.5,0-2.8-0.3-4.2-0.9c-1.3-0.6-2.5-1.3-3.4-2.3
		c-1-1-1.7-2.1-2.3-3.4c-0.6-1.3-0.9-2.7-0.9-4.2c0-1.5,0.3-2.8,0.9-4.2c0.6-1.3,1.3-2.5,2.3-3.4c1-1,2.1-1.7,3.4-2.3
		c1.3-0.6,2.7-0.9,4.2-0.9c1.4,0,2.7,0.3,4,0.8c1.3,0.5,2.4,1.2,3.4,2.2l1.8-1.8c0.3-0.3,0.6-0.4,1-0.2C22.5,2.4,22.7,2.7,22.7,3.1z
		"/>
</g>
</svg>
