<?xml version="1.0" encoding="utf-8"?>
<!-- Generator: Adobe Illustrator 19.2.1, SVG Export Plug-In . SVG Version: 6.00 Build 0)  -->
<svg version="1.1" id="Vrstva_1" xmlns="http://www.w3.org/2000/svg" xmlns:xlink="http://www.w3.org/1999/xlink" x="0px" y="0px"
	 viewBox="0 0 24 24" style="enable-background:new 0 0 24 24;" xml:space="preserve">
<style type="text/css">
	.st0{fill:#FFFFFF;}
</style>
<g>
	<g>
		<path class="st0" d="M18.4,2.7c1.6,0,2.9,1.3,2.9,2.9v12.8c0,1.6-1.3,2.9-2.9,2.9H5.6c-1.6,0-2.9-1.3-2.9-2.9V5.6
			C2.7,4,4,2.7,5.6,2.7H18.4 M10.3,11.4L8.2,9.3C7.8,9,7.4,8.8,6.9,8.8S5.9,9,5.6,9.3l-1.4,1.4c-0.7,0.7-0.7,1.9,0,2.6L9,18.1
			c0.4,0.4,0.8,0.5,1.3,0.5c0.5,0,1-0.2,1.3-0.5l8.2-8.2c0.4-0.4,0.5-0.8,0.5-1.3c0-0.5-0.2-1-0.5-1.3l-1.4-1.4
			c-0.4-0.4-0.8-0.5-1.3-0.5s-1,0.2-1.3,0.5L10.3,11.4 M18.4,1.7H5.6c-2.1,0-3.9,1.7-3.9,3.9v12.8c0,2.1,1.7,3.9,3.9,3.9h12.8
			c2.1,0,3.9-1.7,3.9-3.9V5.6C22.3,3.4,20.6,1.7,18.4,1.7L18.4,1.7z M10.3,12.8l6.2-6.2c0.2-0.2,0.4-0.3,0.6-0.3
			c0.2,0,0.4,0.1,0.6,0.3L19.1,8c0.3,0.3,0.3,0.9,0,1.2l-8.2,8.2c-0.2,0.2-0.4,0.3-0.6,0.3s-0.4-0.1-0.6-0.3l-4.8-4.8
			c-0.3-0.3-0.3-0.9,0-1.2L6.3,10c0.2-0.2,0.4-0.3,0.6-0.3S7.3,9.9,7.5,10L10.3,12.8L10.3,12.8z"/>
	</g>
</g>
</svg>
